HIERARCHY
ROOT Hips
{
	OFFSET -3.958830 18.904000 13.208200
	CHANNELS 6 Xposition Yposition Zposition Zrotation Yrotation Xrotation 
	JOINT LHipJoint
	{
		OFFSET 0.000000 0.000000 0.000000
		CHANNELS 3 Zrotation Yrotation Xrotation
		JOINT LeftUpLeg
		{
			OFFSET 1.800000 -1.400000 0.085000
			CHANNELS 3 Zrotation Yrotation Xrotation
			JOINT LeftLeg
			{
				OFFSET 2.215000 -6.000000 0.000000
				CHANNELS 3 Zrotation Yrotation Xrotation
				JOINT LeftFoot
				{
					OFFSET 2.500000 -6.900000 0.000000
					CHANNELS 3 Zrotation Yrotation Xrotation
					JOINT LeftToeBase
					{
						OFFSET 0.200000 -0.500000 1.950000
						CHANNELS 3 Zrotation Yrotation Xrotation
						End Site
						{
							OFFSET 0.000000 0.000000 0.000000
						}
					}
				}
			}
		}
	}
	JOINT RHipJoint
	{
		OFFSET 0.000000 0.000000 0.000000
		CHANNELS 3 Zrotation Yrotation Xrotation
		JOINT RightUpLeg
		{
			OFFSET -1.800000 -1.400000 0.085000
			CHANNELS 3 Zrotation Yrotation Xrotation
			JOINT RightLeg
			{
				OFFSET -2.215000 -6.000000 0.000000
				CHANNELS 3 Zrotation Yrotation Xrotation
				JOINT RightFoot
				{
					OFFSET -2.500000 -6.900000 0.000000
					CHANNELS 3 Zrotation Yrotation Xrotation
					JOINT RightToeBase
					{
						OFFSET -0.200000 -0.500000 1.950000
						CHANNELS 3 Zrotation Yrotation Xrotation
						End Site
						{
							OFFSET 0.000000 0.000000 0.000000
						}
					}
				}
			}
		}
	}
	JOINT LowerBack
	{
		OFFSET 0.000000 0.000000 0.000000
		CHANNELS 3 Zrotation Yrotation Xrotation
		JOINT Spine
		{
			OFFSET -0.087000 1.940000 -0.288900
			CHANNELS 3 Zrotation Yrotation Xrotation
			JOINT Spine1
			{
				OFFSET 0.000000 1.950000 0.060000
				CHANNELS 3 Zrotation Yrotation Xrotation
				JOINT Neck
				{
					OFFSET 0.000000 0.000000 0.000000
					CHANNELS 3 Zrotation Yrotation Xrotation
					JOINT Neck1
					{
						OFFSET 0.000000 1.600000 0.340000
						CHANNELS 3 Zrotation Yrotation Xrotation
						JOINT Head
						{
							OFFSET 0.000000 1.667000 -0.240000
							CHANNELS 3 Zrotation Yrotation Xrotation
							End Site
							{
								OFFSET 0.000000 0.000000 0.000000
							}
						}
					}
				}
				JOINT LeftShoulder
				{
					OFFSET 0.000000 0.000000 0.000000
					CHANNELS 3 Zrotation Yrotation Xrotation
					JOINT LeftArm
					{
						OFFSET 2.700000 1.550000 -0.730000
						CHANNELS 3 Zrotation Yrotation Xrotation
						JOINT LeftForeArm
						{
							OFFSET 5.450000 0.000000 0.000000
							CHANNELS 3 Zrotation Yrotation Xrotation
							JOINT LeftHand
							{
								OFFSET 3.450000 0.000000 0.000000
								CHANNELS 3 Zrotation Yrotation Xrotation
								JOINT LeftHandIndex1
								{
									OFFSET 0.750000 0.000000 0.000000
									CHANNELS 3 Zrotation Yrotation Xrotation
									End Site
									{
										OFFSET 0.000000 0.000000 0.000000
									}
								}
							}
						}
					}
				}
				JOINT RightShoulder
				{
					OFFSET 0.000000 0.000000 0.000000
					CHANNELS 3 Zrotation Yrotation Xrotation
					JOINT RightArm
					{
						OFFSET -2.700000 1.550000 -0.730000
						CHANNELS 3 Zrotation Yrotation Xrotation
						JOINT RightForeArm
						{
							OFFSET -5.450000 0.000000 0.000000
							CHANNELS 3 Zrotation Yrotation Xrotation
							JOINT RightHand
							{
								OFFSET -3.450000 0.000000 0.000000
								CHANNELS 3 Zrotation Yrotation Xrotation
								JOINT RightHandIndex1
								{
									OFFSET -0.750000 0.000000 0.000000
									CHANNELS 3 Zrotation Yrotation Xrotation
									End Site
									{
										OFFSET 0.000000 0.000000 0.000000
									}
								}
							}
						}
					}
				}
			}
		}
	}
}
MOTION
Frames: 6
Frame Time: 0.016667
-2.138450 17.620750 -1.929400 -3.653955 -0.342395 -6.403161 -14.782390 12.897675 3.046642 21.919941 -0.066164 -5.507447 -9.628811 6.237493 4.066881 -0.337438 5.454486 2.987572 0.407120 -0.137940 0.312660 18.655846 -10.596583 2.743593 -5.261530 -1.097679 -2.320592 12.513067 -6.457299 8.217260 -0.605801 -4.131036 3.400084 -0.090910 0.307190 -0.015050 -4.647838 -2.131428 -7.581349 16.560046 -4.950178 11.862635 -21.600119 1.085456 12.767074 5.403337 -9.649256 -18.240944 -29.137811 4.634704 41.873026 6.809660 -8.690110 -13.617670 8.290412 -24.981318 6.261597 8.819552 -38.316683 2.264290 118.037733 -51.094715 -74.463129 -3.717601 1.653920 0.901770 -0.073190 -0.071140 0.270990 -18.457534 31.511692 10.536337 -34.495994 1.912578 -7.709058 -16.834859 -6.294976 0.212198 2.823970 -0.625059 -0.383540 0.530410 -0.009070 -0.294140 
-2.143660 17.620450 -1.939650 -3.463371 -0.404785 -6.592647 -14.787014 12.919585 3.035835 21.768081 -0.035413 -5.393757 -9.628281 6.240023 4.123631 -0.363871 5.471006 2.982745 0.414930 -0.134240 0.322940 18.651575 -10.599427 2.734100 -5.285887 -1.092692 -2.225160 12.229076 -6.427721 8.300109 -0.607468 -4.131118 3.393096 -0.077800 0.310070 -0.008060 -4.634334 -2.178223 -7.558948 16.248385 -5.126684 12.074256 -21.918136 1.004573 13.282097 5.459917 -9.468282 -18.142937 -28.464295 4.310862 41.531923 6.705190 -8.540270 -14.113910 9.214507 -24.982483 5.872044 8.497815 -38.875460 2.327118 118.121472 -51.675422 -75.577133 -3.740198 1.636857 0.910440 -0.067120 -0.071100 0.269170 -19.560920 31.338515 10.407019 -33.923910 1.761363 -7.413746 -15.801050 -6.280087 0.168534 2.814794 -0.578806 -0.393360 0.536590 -0.005110 -0.303420 
-2.156710 17.627410 -1.957940 -3.584864 -0.295631 -6.823136 -14.767102 12.905737 2.995021 21.862476 0.028278 -5.477006 -9.352629 6.215700 4.297617 -0.380077 5.440676 2.974346 0.452570 -0.093850 0.346440 18.681041 -10.631674 2.710091 -4.935063 -1.066027 -2.249981 11.737489 -6.422502 8.792360 -0.630989 -4.113543 3.381392 -0.063950 0.290820 0.021480 -4.706983 -2.106506 -7.497692 16.729196 -5.281047 12.104007 -22.616558 0.969682 13.942279 5.372927 -9.021694 -18.088770 -27.960803 4.307151 42.399080 7.555760 -8.676860 -15.270350 10.591993 -25.255761 5.340763 7.534466 -40.649150 2.915857 118.290330 -52.809862 -77.536263 -3.747115 1.613172 0.924020 -0.077420 -0.042730 0.270030 -20.913225 31.108707 10.164283 -32.996578 2.151967 -6.993245 -14.355264 -6.596696 0.166488 2.809489 -0.509820 -0.365330 0.520170 -0.014520 -0.303070 
-2.163380 17.633740 -1.975140 -3.620294 -0.249192 -7.131293 -14.774917 12.874610 2.970711 22.018129 0.107366 -5.378634 -9.451122 6.272292 4.450057 -0.398972 5.475568 2.928075 0.506510 -0.030140 0.374180 18.694048 -10.616589 2.679423 -4.766436 -1.073852 -2.041423 11.571467 -6.439875 9.062345 -0.652110 -4.152304 3.337614 -0.022400 0.261580 0.057650 -4.722299 -2.071622 -7.438906 16.793668 -5.393370 12.088325 -22.789565 0.935269 14.919269 5.177670 -8.760714 -17.479578 -27.329529 4.292598 42.411642 7.571970 -8.357290 -16.421140 11.314397 -25.592562 4.863594 6.819055 -42.400179 3.123504 117.030251 -53.668459 -77.169115 -3.750776 1.597901 0.919290 -0.079570 -0.023790 0.265250 -21.467556 30.855474 9.600143 -32.586726 3.428543 -7.009650 -14.288344 -7.008359 0.126769 2.801306 -0.555215 -0.332520 0.486330 -0.024050 -0.306250 
-2.167640 17.625300 -1.985200 -3.726721 -0.424423 -7.072630 -14.777591 12.825241 2.985925 22.342095 0.134888 -5.495023 -9.774382 6.353942 4.460117 -0.405359 5.544832 2.895719 0.536460 0.007710 0.382280 18.710239 -10.600928 2.632075 -4.412587 -0.997241 -2.371588 11.181554 -6.409480 9.564404 -0.649552 -4.132362 3.335094 0.007210 0.267530 0.076950 -4.746087 -2.016107 -7.397506 17.138468 -5.465653 11.745209 -23.120335 0.869149 15.328708 5.041246 -8.473750 -17.036498 -26.615145 4.466375 42.463762 7.276860 -7.889120 -16.401980 11.275182 -25.818057 4.674023 6.127055 -43.335052 3.464446 116.005005 -54.256858 -76.654057 -3.753853 1.572936 0.910110 -0.064620 -0.020590 0.279330 -21.357793 30.567135 9.170242 -32.123025 4.864028 -7.069980 -15.299736 -6.474767 0.066004 2.763796 -0.666896 -0.323590 0.483400 -0.032550 -0.303500 
-2.167670 17.615440 -1.993300 -4.036250 -0.830789 -7.271866 -14.751551 12.733509 2.961660 22.856587 0.190070 -5.347907 -10.009925 6.521626 4.813144 -0.385144 5.591117 2.862580 0.574940 0.076400 0.391130 18.755522 -10.637355 2.606865 -4.054285 -1.024892 -2.431136 10.975667 -6.412556 9.969244 -0.659379 -4.140552 3.327867 0.043680 0.253070 0.068430 -4.848066 -1.787036 -7.348781 18.045682 -5.576893 11.649698 -23.426021 0.813538 15.773873 4.940533 -8.618228 -16.693908 -27.100874 5.043169 42.673847 7.653480 -7.654280 -16.849970 10.795488 -25.872013 4.755219 4.658929 -43.207565 4.123839 116.228354 -55.173267 -78.588418 -3.733196 1.575195 0.887770 -0.072910 -0.011960 0.288350 -20.750315 30.349455 8.850421 -32.157199 5.995859 -7.348139 -16.601934 -5.983433 -0.020418 2.750471 -0.770162 -0.300320 0.483300 -0.055270 -0.289090 
